<svg width="24" height="24" viewBox="0 0 24 24" fill="none" xmlns="http://www.w3.org/2000/svg">
<path d="M19.5 6.25C20.8672 6.25 22 7.38281 22 8.75V18.75C22 20.1562 20.8672 21.25 19.5 21.25H4.5C3.09375 21.25 2 20.1562 2 18.75V6.25C2 4.88281 3.09375 3.75 4.5 3.75H9.07031C9.73438 3.75 10.3594 4.02344 10.8281 4.49219L12.7422 6.25H19.5ZM4.5 5.625C4.14844 5.625 3.875 5.9375 3.875 6.25V10H20.125V8.75C20.125 8.4375 19.8125 8.125 19.5 8.125H12L9.5 5.82031C9.38281 5.70312 9.22656 5.625 9.07031 5.625H4.5ZM19.5 19.375C19.8125 19.375 20.125 19.1016 20.125 18.75V11.875H3.875V18.75C3.875 19.1016 4.14844 19.375 4.5 19.375H19.5Z" fill="#111111"/>
</svg>
