<svg width="32" height="32" viewBox="0 0 32 32" fill="none" xmlns="http://www.w3.org/2000/svg">
<path d="M26.0781 21.0156C26.3594 21.2969 26.5 21.6719 26.5 22C26.4531 22.7969 25.8906 23.5 24.9531 23.5H7C6.10938 23.5 5.5 22.7969 5.5 22C5.5 21.6719 5.59375 21.2969 5.875 21.0156C6.76562 20.0312 8.5 18.5781 8.5 13.75C8.5 10.1406 11.0312 7.23438 14.5 6.48438V5.5C14.5 4.70312 15.1562 4 16 4C16.7969 4 17.5 4.70312 17.5 5.5V6.48438C20.9219 7.23438 23.4531 10.1406 23.4531 13.75C23.4531 18.5781 25.1875 20.0312 26.0781 21.0156ZM8.64062 21.25H23.3125C22.3281 19.9375 21.25 17.7812 21.25 13.7969V13.75C21.25 10.8906 18.8594 8.5 16 8.5C13.0938 8.5 10.75 10.8906 10.75 13.75V13.7969C10.75 17.7812 9.625 19.9375 8.64062 21.25ZM16 28C14.3125 28 13 26.6875 13 25H19C19 26.6875 17.6406 28 16 28Z" fill="#111111"/>
</svg>
