<svg width="24" height="24" viewBox="0 0 24 24" fill="none" xmlns="http://www.w3.org/2000/svg">
<path d="M18.7031 2.61719C19.0156 2.77344 19.25 3.08594 19.25 3.47656V21.5625C19.25 21.9531 19.0156 22.2656 18.7031 22.4219C18.5469 22.5 18.4297 22.5 18.3125 22.5C18.0781 22.5 17.8438 22.4609 17.6875 22.3047L16.1641 20.9766L14.875 22.2266C14.5625 22.5781 14.0547 22.6172 13.6641 22.3438L11.75 20.8594L9.79688 22.3438C9.40625 22.6172 8.89844 22.5781 8.58594 22.2266L7.29688 20.9766L5.77344 22.3047C5.5 22.5391 5.10938 22.5781 4.75781 22.4219C4.44531 22.2656 4.25 21.9531 4.25 21.5625V3.47656C4.25 3.08594 4.44531 2.77344 4.75781 2.61719C5.10938 2.46094 5.5 2.5 5.77344 2.73438L7.29688 4.0625L8.58594 2.8125C8.89844 2.46094 9.40625 2.42188 9.79688 2.69531L11.75 4.17969L13.6641 2.69531C14.0547 2.42188 14.5625 2.46094 14.875 2.8125L16.1641 4.0625L17.6875 2.73438C17.9609 2.5 18.3516 2.46094 18.7031 2.61719ZM17.375 19.5312V5.50781L16.7109 6.05469C16.3594 6.36719 15.7734 6.32812 15.4609 5.97656L14.1328 4.6875L12.2969 6.09375C11.9453 6.32812 11.5156 6.32812 11.1641 6.09375L9.32812 4.6875L8 5.97656C7.6875 6.32812 7.10156 6.36719 6.75 6.05469L6.125 5.50781V19.5312L6.75 18.9844C7.10156 18.6719 7.6875 18.7109 8 19.0625L9.32812 20.3516L11.1641 18.9453C11.3203 18.8281 11.5156 18.75 11.75 18.75C11.9453 18.75 12.1406 18.8281 12.2969 18.9453L14.1328 20.3516L15.4609 19.0625C15.7734 18.7109 16.3594 18.6719 16.7109 18.9844L17.375 19.5312ZM15.1875 8.78906C15.5 8.78906 15.8125 9.0625 15.8125 9.41406C15.8125 9.72656 15.5 10.0391 15.1875 10.0391H8.3125C7.96094 10.0391 7.6875 9.72656 7.6875 9.41406C7.6875 9.0625 7.96094 8.78906 8.3125 8.78906H15.1875ZM15.1875 15C15.5 15 15.8125 15.3125 15.8125 15.625C15.8125 15.9766 15.5 16.25 15.1875 16.25H8.3125C7.96094 16.25 7.6875 15.9766 7.6875 15.625C7.6875 15.3125 7.96094 15 8.3125 15H15.1875ZM15.1875 11.9141C15.5 11.9141 15.8125 12.1875 15.8125 12.5391C15.8125 12.8516 15.5 13.125 15.1875 13.125H8.3125C7.96094 13.125 7.6875 12.8516 7.6875 12.5391C7.6875 12.1875 7.96094 11.9141 8.3125 11.9141H15.1875Z" fill="#111111"/>
</svg>
