<svg width="25" height="24" viewBox="0 0 25 24" fill="none" xmlns="http://www.w3.org/2000/svg">
<rect x="0.5" width="24" height="24" rx="12" fill="white"/>
<path d="M17.125 14.875C17.5938 15.375 17.5938 16.1562 17.125 16.6562C16.625 17.125 15.8438 17.125 15.3438 16.6562L12.5 13.7812L9.625 16.6562C9.125 17.125 8.34375 17.125 7.84375 16.6562C7.375 16.1562 7.375 15.375 7.84375 14.875L10.7188 12L7.84375 9.15625C7.375 8.65625 7.375 7.875 7.84375 7.375C8.34375 6.90625 9.125 6.90625 9.625 7.375L12.5 10.25L15.3438 7.375C15.8438 6.90625 16.625 6.90625 17.125 7.375C17.5938 7.875 17.5938 8.65625 17.125 9.15625L14.25 12L17.125 14.875Z" fill="#CD0F0F"/>
</svg>
