<svg width="16" height="16" viewBox="0 0 16 16" fill="none" xmlns="http://www.w3.org/2000/svg">
<path d="M6 4.0625C9 4.0625 12 4.96875 12 6.75V13.25C12 15.0625 8.96875 16 6 16C3 16 0 15.0625 0 13.25V6.75C0 4.96875 3 4.0625 6 4.0625ZM10.5 13.25V11.9062C9.34375 12.4688 7.65625 12.75 6 12.75C4.3125 12.75 2.625 12.4688 1.5 11.9062V13.25C1.5 13.5938 3.03125 14.5 6 14.5C8.9375 14.5 10.5 13.5938 10.5 13.25ZM10.5 10V8.65625C9.34375 9.21875 7.65625 9.5 6 9.5C4.3125 9.5 2.625 9.21875 1.5 8.65625V10C1.5 10.3438 3.03125 11.25 6 11.25C8.9375 11.25 10.5 10.3438 10.5 10ZM6 8C8.9375 8 10.5 7.09375 10.5 6.75C10.5 6.4375 8.9375 5.5 6 5.5C3.03125 5.5 1.5 6.4375 1.5 6.75C1.5 7.09375 3.03125 8 6 8ZM10 0C12.9688 0 16 0.96875 16 2.75V9.25C16 10.8438 13.6875 11.5 13.5 11.5C13.0625 11.5 12.7188 11.1562 12.7188 10.75C12.7188 10.4375 12.9375 10.1562 13.25 10.0312C14.2812 9.6875 14.5 9.3125 14.5 9.25V7.90625C14.375 7.9375 13.75 8.28125 13.4688 8.28125C13.0312 8.28125 12.7188 7.9375 12.7188 7.53125C12.7188 7.1875 12.9062 6.90625 13.2188 6.8125C14.25 6.46875 14.5 6.0625 14.5 6V4.65625C14.3438 4.71875 13.75 5 13.5 5C13.0625 5 12.7188 4.65625 12.7188 4.25C12.7188 3.9375 12.9375 3.65625 13.25 3.53125C14.2812 3.1875 14.5 2.8125 14.5 2.75C14.5 2.4375 12.9375 1.5 10 1.5C5.90625 1.5 5.6875 2.90625 4.96875 2.90625C4.46875 2.90625 4.21875 2.46875 4.21875 2.15625C4.21875 1.25 6.40625 0 10 0Z" fill="#B8F442"/>
</svg>
