<svg width="25" height="24" viewBox="0 0 25 24" fill="none" xmlns="http://www.w3.org/2000/svg">
<path d="M10.625 11.5156L11.4844 12.375C11.9922 12.8828 11.9922 13.6641 11.4844 14.1719L8.4375 17.2188L9.60938 18.3906C9.96094 18.7422 10.0781 19.2891 9.88281 19.7578C9.6875 20.2266 9.21875 20.5 8.75 20.5H3.4375C2.89062 20.5 2.5 20.1094 2.5 19.5625V14.2891C2.5 13.7812 2.77344 13.3125 3.24219 13.1172C3.39844 13.0391 3.55469 13.0391 3.75 13.0391C4.0625 13.0391 4.375 13.1562 4.60938 13.3906L5.78125 14.5625L8.82812 11.5156C9.33594 11.0078 10.1172 11.0078 10.625 11.5156ZM21.5625 0.5C22.0703 0.5 22.5 0.929688 22.5 1.4375V6.75C22.5 7.25781 22.1875 7.72656 21.7188 7.92188C21.25 8.11719 20.7031 8 20.3516 7.64844L19.1797 6.47656L16.1328 9.52344C15.625 10.0312 14.8438 10.0312 14.3359 9.52344L13.4766 8.66406C12.9688 8.15625 12.9688 7.375 13.4766 6.86719L16.5234 3.82031L15.3516 2.64844C15 2.29688 14.8828 1.75 15.0781 1.28125C15.2734 0.8125 15.7422 0.5 16.2109 0.5H21.5625Z" fill="#B8F442"/>
</svg>
