<svg width="24" height="24" viewBox="0 0 24 24" fill="none" xmlns="http://www.w3.org/2000/svg">
<path d="M23 12.5C22.9609 13.2031 22.4141 13.75 21.75 13.75H20.4609V21.25C20.4609 21.9531 19.9141 22.5 19.2109 22.5H15.5C14.7969 22.5 14.25 21.9531 14.25 21.25V16.875C14.25 16.5625 13.9375 16.25 13.625 16.25H9.875C9.52344 16.25 9.25 16.5625 9.25 16.875V21.25C9.25 21.9531 8.66406 22.5 8 22.5H4.25C3.54688 22.5 3 21.9531 3 21.25V13.75H1.75C1.04688 13.75 0.5 13.2031 0.5 12.5C0.5 12.1484 0.617188 11.8359 0.890625 11.5625L10.8906 2.8125C11.1641 2.57812 11.4766 2.5 11.75 2.5C12.0234 2.5 12.3359 2.61719 12.5703 2.8125L22.5703 11.5625C22.8438 11.8359 23 12.1484 23 12.5Z" fill="#111111"/>
</svg>
