<svg width="24" height="24" viewBox="0 0 24 24" fill="none" xmlns="http://www.w3.org/2000/svg">
<path d="M19.25 11.25C19.9141 11.25 20.5 11.8359 20.5 12.5C20.5 13.2031 19.9141 13.75 19.25 13.75H4.25C3.54688 13.75 3 13.2031 3 12.5C3 11.8359 3.54688 11.25 4.25 11.25H19.25ZM19.25 17.5C19.9141 17.5 20.5 18.0859 20.5 18.75C20.5 19.4531 19.9141 20 19.25 20H4.25C3.54688 20 3 19.4531 3 18.75C3 18.0859 3.54688 17.5 4.25 17.5H19.25ZM19.25 5C19.9141 5 20.5 5.58594 20.5 6.25C20.5 6.95312 19.9141 7.5 19.25 7.5H4.25C3.54688 7.5 3 6.95312 3 6.25C3 5.58594 3.54688 5 4.25 5H19.25Z" fill="#111111"/>
</svg>
