<svg width="95" height="25" viewBox="0 0 95 25" fill="none" xmlns="http://www.w3.org/2000/svg">
<path d="M78.5407 0L82.5975 7.19602H82.7907L86.8958 0H94.3816L86.9924 12.3636L94.6714 24.7273H86.9924L82.7907 17.3864H82.5975L78.3958 24.7273H70.7651L78.3475 12.3636L71.0066 0H78.5407Z" fill="#333333"/>
<path d="M50.1938 24.7273V0H68.0149V5.40909H56.9069V9.65909H67.0973V15.0682H56.9069V19.3182H67.9666V24.7273H50.1938Z" fill="#333333"/>
<path d="M27.8816 24.7273V0H38.5549C40.3901 0 41.9959 0.362217 43.3724 1.08665C44.7488 1.81108 45.8193 2.82931 46.584 4.14134C47.3487 5.45336 47.731 6.98674 47.731 8.74148C47.731 10.5123 47.3366 12.0457 46.5478 13.3416C45.767 14.6375 44.6683 15.6357 43.2516 16.3359C41.843 17.0362 40.1969 17.3864 38.3134 17.3864H31.9384V12.1705H36.9611C37.75 12.1705 38.4221 12.0336 38.9775 11.7599C39.5409 11.4782 39.9716 11.0798 40.2694 10.5646C40.5752 10.0495 40.7282 9.44176 40.7282 8.74148C40.7282 8.03314 40.5752 7.42945 40.2694 6.9304C39.9716 6.4233 39.5409 6.03693 38.9775 5.77131C38.4221 5.49763 37.75 5.3608 36.9611 5.3608H34.5947V24.7273H27.8816Z" fill="#333333"/>
<path d="M7.24432 24.7273H0L8.16193 0H17.3381L25.5 24.7273H18.2557L12.8466 6.80966H12.6534L7.24432 24.7273ZM5.89205 14.9716H19.5114V19.9943H5.89205V14.9716Z" fill="#333333"/>
</svg>
