<svg width="26" height="24" viewBox="0 0 26 24" fill="none" xmlns="http://www.w3.org/2000/svg">
<path d="M24.3281 17.1094L25.3438 17.6953C25.4609 17.7344 25.5 17.8906 25.4609 18.0078C25.1875 18.8672 24.7578 19.6094 24.1719 20.2734C24.0938 20.3516 23.9375 20.3906 23.8203 20.3125L22.8047 19.7266C22.375 20.0781 21.9062 20.3906 21.3594 20.5469V21.7188C21.3594 21.875 21.2812 21.9922 21.1641 21.9922C20.3047 22.1875 19.4453 22.1875 18.5469 21.9922C18.4297 21.9922 18.3516 21.875 18.3516 21.7188V20.5469C17.8047 20.3906 17.3359 20.0781 16.9062 19.7266L15.8906 20.3125C15.7734 20.3906 15.6172 20.3516 15.5391 20.2734C14.9531 19.6094 14.4844 18.8672 14.25 18.0078C14.2109 17.8906 14.25 17.7344 14.3672 17.6953L15.3828 17.1094C15.2656 16.5625 15.2656 15.9766 15.3828 15.4297L14.3672 14.8438C14.25 14.8047 14.2109 14.6484 14.25 14.5312C14.4844 13.6719 14.9531 12.9297 15.5391 12.2656C15.6172 12.1875 15.7734 12.1484 15.8906 12.2266L16.9062 12.8125C17.3359 12.4609 17.8047 12.1484 18.3516 11.9922V10.8203C18.3516 10.6641 18.4297 10.5469 18.5469 10.5469C19.4062 10.3516 20.2656 10.3516 21.1641 10.5469C21.2812 10.5469 21.3594 10.6641 21.3594 10.8203V11.9922C21.9062 12.1484 22.375 12.4609 22.8047 12.8125L23.8203 12.2266C23.9375 12.1484 24.0938 12.1875 24.1719 12.2656C24.7578 12.9297 25.1875 13.6719 25.4609 14.5312C25.5 14.6484 25.4609 14.8047 25.3438 14.8438L24.3281 15.4297C24.4453 15.9766 24.4453 16.5625 24.3281 17.1094ZM19.875 18.1641C20.8906 18.1641 21.75 17.3047 21.75 16.25C21.75 15.2344 20.8906 14.375 19.875 14.375C18.8203 14.375 17.9609 15.2344 17.9609 16.25C17.9609 17.3047 18.8203 18.1641 19.875 18.1641ZM17.1016 21.7188C17.1016 21.9531 17.1797 22.1875 17.2578 22.3828C17.1016 22.4609 16.9062 22.5 16.75 22.5H1.75C1.04688 22.5 0.5 21.9531 0.5 21.25C0.5 17.4609 3.54688 14.375 7.375 14.375H11.125C11.75 14.375 12.375 14.4922 13 14.6484C13 15.1953 13.2734 15.6641 13.7422 15.9375L14.0547 16.1328C14.0547 16.2109 14.0547 16.3281 14.0547 16.4062L13.7422 16.6016C13.625 16.6797 13.5078 16.7578 13.4297 16.875C12.7266 16.4844 11.9453 16.25 11.125 16.25H7.375C4.79688 16.25 2.6875 18.1641 2.375 20.625H14.25C14.3672 20.7812 14.4844 20.9766 14.6016 21.0938C14.9141 21.4062 15.3438 21.6016 15.7344 21.6016C16.0078 21.6016 16.2812 21.5234 16.5156 21.4062L16.8281 21.2109C16.9062 21.2891 16.9844 21.3281 17.1016 21.3672V21.7188ZM9.25 12.5C6.47656 12.5 4.25 10.2734 4.25 7.5C4.25 4.76562 6.47656 2.5 9.25 2.5C11.9844 2.5 14.25 4.76562 14.25 7.5C14.25 10.2734 11.9844 12.5 9.25 12.5ZM9.25 4.375C7.49219 4.375 6.125 5.78125 6.125 7.5C6.125 9.25781 7.49219 10.625 9.25 10.625C10.9688 10.625 12.375 9.25781 12.375 7.5C12.375 5.78125 10.9688 4.375 9.25 4.375Z" fill="#111111"/>
</svg>
