<svg width="30" height="30" viewBox="0 0 30 30" fill="none" xmlns="http://www.w3.org/2000/svg">
<path d="M15 0.71875C22.9688 0.71875 29.5312 7.28125 29.5312 15.25C29.5312 23.2773 22.9688 29.7812 15 29.7812C6.97266 29.7812 0.46875 23.2773 0.46875 15.25C0.46875 7.28125 6.97266 0.71875 15 0.71875ZM21.6797 10.6211C21.7383 10.5625 21.7383 10.5039 21.7383 10.4453C21.7383 10.3281 21.6797 10.2109 21.6797 10.0352C21.6797 9.91797 21.5625 9.74219 21.5039 9.68359C21.3281 9.50781 21.0352 9.50781 20.918 9.50781C20.3906 9.50781 19.5117 9.80078 15.4688 11.5C14.0625 12.0859 11.25 13.2578 7.03125 15.1328C6.32812 15.4258 5.97656 15.6602 5.91797 15.9531C5.85938 16.4219 6.62109 16.5977 7.5 16.8906C8.26172 17.125 9.25781 17.418 9.78516 17.418C10.2539 17.418 10.7812 17.2422 11.3672 16.832C15.293 14.1367 17.3438 12.7891 17.4609 12.7891C17.5781 12.7891 17.6953 12.7305 17.7539 12.7891C17.8711 12.9062 17.8711 13.0234 17.8125 13.082C17.7539 13.375 14.0625 16.7734 13.8281 17.0078C13.0078 17.8281 12.0703 18.3555 13.5352 19.293C14.7656 20.1133 15.4688 20.6406 16.7578 21.4609C17.5781 21.9883 18.2227 22.6328 19.043 22.5742C19.4531 22.5156 19.8633 22.1641 20.0391 21.0508C20.5664 18.5312 21.5039 12.9062 21.6797 10.6211Z" fill="#00C2FF"/>
</svg>
